<svg viewBox="0 0 370 391" xmlns="http://www.w3.org/2000/svg">
  <g clip-rule="evenodd" fill-rule="evenodd">
    <!-- Outer Shape -->
    <path d="M207.5 22.4L321.9 89c13.5 7.9 21.9 22.4 21.9 38v136.4c0 17.3-9.3 33.3-24.5 41.8l-113.5 63.9a49.06 49.06 0 0 1 -48.5-.2l-104.5-60.1c-16.4-9.5-26.6-27-26.6-45.9v-129.5c0-19.1 9.9-36.8 26.1-46.8L181.8 21c16-9.9 36.2-10.1 52.4-.7z" 
          fill="#4CAF50" stroke="#388E3C" stroke-width="27"/>
    <!-- Letter C -->
    <path d="M155 100c-30 0-55 25-55 55v81c0 30 25 55 55 55h60c15.5 0 28-12.5 28-28h-40c-15.5 0-28-12.5-28-28v-81c0-15.5 12.5-28 28-28h40c0-15.5-12.5-28-28-28h-60z" 
          fill="#fff"/>
  </g>
</svg>